<?xml version="1.0" standalone="no"?>
<!DOCTYPE svg PUBLIC "-//W3C//DTD SVG 20010904//EN"
 "http://www.w3.org/TR/2001/REC-SVG-20010904/DTD/svg10.dtd">
<svg version="1.0" xmlns="http://www.w3.org/2000/svg"
 width="2000.000000pt" height="1486.000000pt" viewBox="0 0 2000.000000 1486.000000"
 preserveAspectRatio="xMidYMid meet">

<g transform="translate(0.000000,1486.000000) scale(0.100000,-0.100000)"
fill="#ffffff" stroke="none">
<path d="M2220 12746 l0 -1083 -72 -7 c-308 -28 -572 -211 -703 -487 -19 -41
-45 -112 -57 -159 l-23 -85 0 -1830 c0 -1980 -2 -1892 55 -2111 113 -430 387
-795 773 -1031 180 -111 376 -183 612 -226 l120 -22 1825 0 c1961 0 1859 -3
2014 51 310 107 542 407 563 727 l6 87 838 0 839 0 0 860 0 860 -839 0 -838 0
-6 84 c-20 280 -214 557 -482 686 -166 81 -176 82 -830 89 -570 7 -581 7 -650
30 -272 90 -461 289 -536 566 -21 76 -22 107 -29 650 -6 551 -7 572 -29 645
-44 149 -153 318 -264 412 -145 121 -363 208 -529 208 l-38 0 0 1085 0 1085
-860 0 -860 0 0 -1084z"/>
<path d="M9545 9149 c-173 -34 -324 -180 -370 -356 -23 -87 -22 -2640 0 -2728
36 -135 129 -247 257 -309 108 -52 186 -59 633 -54 341 4 375 6 432 25 167 55
293 194 329 362 21 102 20 2597 -1 2689 -40 169 -143 287 -310 353 -60 24 -63
24 -490 26 -248 1 -451 -3 -480 -8z"/>
<path d="M13372 9139 c-29 -5 -80 -18 -114 -30 -334 -112 -557 -395 -593 -751
l-7 -68 -834 0 -834 0 0 -860 0 -860 834 0 834 0 7 -67 c35 -367 275 -659 627
-765 70 -21 94 -22 658 -28 495 -5 594 -9 640 -22 244 -71 408 -202 515 -409
82 -158 85 -185 85 -724 0 -258 5 -516 10 -572 37 -416 364 -743 777 -781 l78
-7 3 -1082 2 -1083 860 0 860 0 0 1085 0 1085 49 0 c116 0 299 59 410 132 186
122 316 301 373 518 l23 85 0 1835 0 1835 -22 121 c-129 709 -654 1244 -1369
1396 l-109 23 -1855 1 c-1040 1 -1878 -2 -1908 -7z"/>
</g>
</svg>
