<svg version="1.1" id="Layer_1" xmlns="http://www.w3.org/2000/svg" xmlns:xlink="http://www.w3.org/1999/xlink" x="0px" y="0px"
	 width="100%" viewBox="0 0 2000 1486" enable-background="new 0 0 2000 1486" xml:space="preserve">
<path fill="#4C6971" opacity="1.000000" stroke="none" 
	d="
M1100.000000,1487.000000 
	C733.333435,1487.000000 367.166870,1487.000000 1.000246,1487.000000 
	C1.000164,991.666931 1.000164,496.333832 1.000082,1.000578 
	C667.666199,1.000385 1334.332397,1.000385 2000.999023,1.000193 
	C2000.999268,496.332733 2000.999268,991.665466 2000.999634,1486.999023 
	C1700.833374,1487.000000 1400.666626,1487.000000 1100.000000,1487.000000 
M1538.893921,1135.635986 
	C1556.083252,1156.876709 1578.618408,1167.361572 1606.162231,1168.358887 
	C1606.162231,1240.712891 1606.162231,1312.615967 1606.162231,1384.545288 
	C1664.036743,1384.545288 1721.391968,1384.545288 1779.254150,1384.545288 
	C1779.254150,1312.182861 1779.254150,1240.274048 1779.254150,1168.407959 
	C1784.847778,1167.871826 1790.039673,1167.877197 1795.000244,1166.809082 
	C1813.767090,1162.767700 1829.879028,1154.122681 1842.988525,1139.678345 
	C1857.994629,1123.144409 1865.796631,1103.719727 1865.856445,1081.795288 
	C1866.165527,968.647766 1866.047363,855.498901 1865.904297,742.350769 
	C1865.893433,733.802612 1865.116211,725.155151 1863.671997,716.729248 
	C1860.241943,696.716980 1854.595825,677.255981 1843.801636,659.899414 
	C1836.625488,648.360168 1828.947388,636.892883 1819.926514,626.793335 
	C1803.498657,608.401123 1783.560425,594.533936 1760.687134,584.783325 
	C1741.045410,576.410339 1720.588501,571.275024 1699.480469,571.199585 
	C1582.834229,570.782715 1466.185669,570.963928 1349.538086,571.106567 
	C1343.684326,571.113708 1337.685181,572.110107 1332.006104,573.604370 
	C1312.036377,578.858826 1295.530762,589.680298 1283.269165,606.347351 
	C1273.534790,619.579163 1267.395630,634.418091 1267.140381,651.075562 
	C1267.062866,656.136353 1265.280762,657.094788 1260.719238,657.083252 
	C1209.061279,656.952209 1157.402832,657.000366 1105.744507,657.000427 
	C1103.644409,657.000427 1101.544189,657.000427 1099.293457,657.000427 
	C1099.293457,715.281372 1099.293457,772.851624 1099.293457,830.999573 
	C1101.696167,830.999573 1103.813843,830.999573 1105.931519,830.999634 
	C1157.589844,830.999756 1209.248169,831.038025 1260.906250,830.929443 
	C1265.165649,830.920532 1266.884521,831.704041 1267.220215,836.603516 
	C1267.732178,844.073669 1268.794556,851.758301 1271.219482,858.802368 
	C1283.148193,893.453247 1316.517456,917.147583 1353.217407,917.016113 
	C1377.046631,916.930786 1400.876831,916.909729 1424.705566,917.045288 
	C1433.983765,917.098083 1443.285522,917.326660 1452.529541,918.065063 
	C1467.661865,919.273865 1480.686279,925.957764 1491.978027,935.627686 
	C1511.202881,952.091248 1519.890015,973.549133 1519.989502,998.650024 
	C1520.047607,1013.314087 1519.872192,1027.979858 1520.032837,1042.642456 
	C1520.227661,1060.416992 1519.852783,1078.253418 1521.251221,1095.942261 
	C1522.410278,1110.604248 1528.801147,1123.740967 1538.893921,1135.635986 
M151.477829,357.968658 
	C141.009491,372.491730 136.144379,389.007812 136.108704,406.606537 
	C135.891144,513.921387 135.933395,621.237122 136.087357,728.552185 
	C136.105850,741.442932 137.027115,754.355286 138.052124,767.216064 
	C139.478897,785.117920 145.156281,801.943909 152.643082,818.114746 
	C163.836258,842.291321 180.104324,862.570435 200.806030,879.343628 
	C214.855942,890.727356 230.366318,899.498169 247.222198,905.963074 
	C264.250458,912.493958 281.865906,916.857605 300.086060,916.890564 
	C418.232513,917.104065 536.379517,917.016357 654.526306,916.933289 
	C658.759216,916.930359 663.055176,916.246155 667.213196,915.366516 
	C686.663696,911.251587 702.541870,901.022034 715.336914,886.062744 
	C724.339966,875.536804 730.396545,863.369324 732.992004,849.673157 
	C734.144653,843.590759 734.867126,837.426880 735.860962,830.792114 
	C791.092834,830.792114 846.331177,830.792114 901.698303,830.792114 
	C901.698303,772.700439 901.698303,715.130249 901.698303,656.873840 
	C846.036499,656.873840 790.671692,656.873840 735.618225,656.873840 
	C734.848267,651.097778 734.439514,645.988770 733.452881,640.993896 
	C729.713684,622.062073 720.413513,606.293274 705.999329,593.481812 
	C691.205872,580.333313 674.023315,572.540588 654.208374,572.111206 
	C620.277710,571.375854 586.296326,572.166626 552.404846,570.715149 
	C529.080139,569.716309 510.709991,557.629517 496.963135,538.807495 
	C486.378571,524.315247 482.004395,507.857086 482.001343,490.088409 
	C481.996399,461.426544 482.047272,432.764557 481.952118,404.102997 
	C481.936798,399.493500 481.861877,394.753601 480.836670,390.299011 
	C473.544373,358.613647 455.111267,336.229309 424.272888,325.153748 
	C415.438416,321.980896 405.840210,320.934479 395.805969,318.741180 
	C395.805969,247.331894 395.805969,175.305206 395.805969,103.377167 
	C337.549072,103.377167 279.978546,103.377167 221.913071,103.377167 
	C221.913071,175.666794 221.913071,247.580872 221.913071,319.814880 
	C192.563828,321.694122 168.842972,333.315674 151.477829,357.968658 
M915.999817,735.500000 
	C915.999817,778.482361 916.069031,821.464844 915.938049,864.446838 
	C915.913513,872.483704 917.154297,880.113647 919.969543,887.637634 
	C925.856750,903.371521 945.023010,916.989990 961.768066,916.997192 
	C987.590759,917.008423 1013.413879,917.069519 1039.235718,916.922668 
	C1042.956909,916.901550 1046.771240,916.197754 1050.374268,915.201843 
	C1072.831055,908.994873 1085.904785,889.150635 1085.945679,865.736450 
	C1086.087402,784.603394 1086.027832,703.469910 1085.927734,622.336731 
	C1085.922119,617.773865 1085.275513,613.116333 1084.231567,608.666016 
	C1078.311768,583.429993 1058.554321,570.476990 1034.706665,570.080200 
	C1012.222168,569.706177 989.726135,569.935547 967.236084,570.056946 
	C962.968262,570.080017 958.572021,570.312439 954.460449,571.345215 
	C930.391785,577.391052 915.887451,597.230225 915.966370,621.046753 
	C916.091736,658.864136 915.999817,696.682190 915.999817,735.500000 
z"/>
<path fill="#FF3366" opacity="1.000000" stroke="none" 
	d="
M1538.690308,1135.338867 
	C1528.801147,1123.740967 1522.410278,1110.604248 1521.251221,1095.942261 
	C1519.852783,1078.253418 1520.227661,1060.416992 1520.032837,1042.642456 
	C1519.872192,1027.979858 1520.047607,1013.314087 1519.989502,998.650024 
	C1519.890015,973.549133 1511.202881,952.091248 1491.978027,935.627686 
	C1480.686279,925.957764 1467.661865,919.273865 1452.529541,918.065063 
	C1443.285522,917.326660 1433.983765,917.098083 1424.705566,917.045288 
	C1400.876831,916.909729 1377.046631,916.930786 1353.217407,917.016113 
	C1316.517456,917.147583 1283.148193,893.453247 1271.219482,858.802368 
	C1268.794556,851.758301 1267.732178,844.073669 1267.220215,836.603516 
	C1266.884521,831.704041 1265.165649,830.920532 1260.906250,830.929443 
	C1209.248169,831.038025 1157.589844,830.999756 1105.931519,830.999634 
	C1103.813843,830.999573 1101.696167,830.999573 1099.293457,830.999573 
	C1099.293457,772.851624 1099.293457,715.281372 1099.293457,657.000427 
	C1101.544189,657.000427 1103.644409,657.000427 1105.744507,657.000427 
	C1157.402832,657.000366 1209.061279,656.952209 1260.719238,657.083252 
	C1265.280762,657.094788 1267.062866,656.136353 1267.140381,651.075562 
	C1267.395630,634.418091 1273.534790,619.579163 1283.269165,606.347351 
	C1295.530762,589.680298 1312.036377,578.858826 1332.006104,573.604370 
	C1337.685181,572.110107 1343.684326,571.113708 1349.538086,571.106567 
	C1466.185669,570.963928 1582.834229,570.782715 1699.480469,571.199585 
	C1720.588501,571.275024 1741.045410,576.410339 1760.687134,584.783325 
	C1783.560425,594.533936 1803.498657,608.401123 1819.926514,626.793335 
	C1828.947388,636.892883 1836.625488,648.360168 1843.801636,659.899414 
	C1854.595825,677.255981 1860.241943,696.716980 1863.671997,716.729248 
	C1865.116211,725.155151 1865.893433,733.802612 1865.904297,742.350769 
	C1866.047363,855.498901 1866.165527,968.647766 1865.856445,1081.795288 
	C1865.796631,1103.719727 1857.994629,1123.144409 1842.988525,1139.678345 
	C1829.879028,1154.122681 1813.767090,1162.767700 1795.000244,1166.809082 
	C1790.039673,1167.877197 1784.847778,1167.871826 1779.254150,1168.407959 
	C1779.254150,1240.274048 1779.254150,1312.182861 1779.254150,1384.545288 
	C1721.391968,1384.545288 1664.036743,1384.545288 1606.162231,1384.545288 
	C1606.162231,1312.615967 1606.162231,1240.712891 1606.162231,1168.358887 
	C1578.618408,1167.361572 1556.083252,1156.876709 1538.690308,1135.338867 
z"/>
<path fill="#FF3366" opacity="1.000000" stroke="none" 
	d="
M151.685135,357.667053 
	C168.842972,333.315674 192.563828,321.694122 221.913071,319.814880 
	C221.913071,247.580872 221.913071,175.666794 221.913071,103.377167 
	C279.978546,103.377167 337.549072,103.377167 395.805969,103.377167 
	C395.805969,175.305206 395.805969,247.331894 395.805969,318.741180 
	C405.840210,320.934479 415.438416,321.980896 424.272888,325.153748 
	C455.111267,336.229309 473.544373,358.613647 480.836670,390.299011 
	C481.861877,394.753601 481.936798,399.493500 481.952118,404.102997 
	C482.047272,432.764557 481.996399,461.426544 482.001343,490.088409 
	C482.004395,507.857086 486.378571,524.315247 496.963135,538.807495 
	C510.709991,557.629517 529.080139,569.716309 552.404846,570.715149 
	C586.296326,572.166626 620.277710,571.375854 654.208374,572.111206 
	C674.023315,572.540588 691.205872,580.333313 705.999329,593.481812 
	C720.413513,606.293274 729.713684,622.062073 733.452881,640.993896 
	C734.439514,645.988770 734.848267,651.097778 735.618225,656.873840 
	C790.671692,656.873840 846.036499,656.873840 901.698303,656.873840 
	C901.698303,715.130249 901.698303,772.700439 901.698303,830.792114 
	C846.331177,830.792114 791.092834,830.792114 735.860962,830.792114 
	C734.867126,837.426880 734.144653,843.590759 732.992004,849.673157 
	C730.396545,863.369324 724.339966,875.536804 715.336914,886.062744 
	C702.541870,901.022034 686.663696,911.251587 667.213196,915.366516 
	C663.055176,916.246155 658.759216,916.930359 654.526306,916.933289 
	C536.379517,917.016357 418.232513,917.104065 300.086060,916.890564 
	C281.865906,916.857605 264.250458,912.493958 247.222198,905.963074 
	C230.366318,899.498169 214.855942,890.727356 200.806030,879.343628 
	C180.104324,862.570435 163.836258,842.291321 152.643082,818.114746 
	C145.156281,801.943909 139.478897,785.117920 138.052124,767.216064 
	C137.027115,754.355286 136.105850,741.442932 136.087357,728.552185 
	C135.933395,621.237122 135.891144,513.921387 136.108704,406.606537 
	C136.144379,389.007812 141.009491,372.491730 151.685135,357.667053 
z"/>
<path fill="#FF3366" opacity="1.000000" stroke="none" 
	d="
M915.999817,735.000000 
	C915.999817,696.682190 916.091736,658.864136 915.966370,621.046753 
	C915.887451,597.230225 930.391785,577.391052 954.460449,571.345215 
	C958.572021,570.312439 962.968262,570.080017 967.236084,570.056946 
	C989.726135,569.935547 1012.222168,569.706177 1034.706665,570.080200 
	C1058.554321,570.476990 1078.311768,583.429993 1084.231567,608.666016 
	C1085.275513,613.116333 1085.922119,617.773865 1085.927734,622.336731 
	C1086.027832,703.469910 1086.087402,784.603394 1085.945679,865.736450 
	C1085.904785,889.150635 1072.831055,908.994873 1050.374268,915.201843 
	C1046.771240,916.197754 1042.956909,916.901550 1039.235718,916.922668 
	C1013.413879,917.069519 987.590759,917.008423 961.768066,916.997192 
	C945.023010,916.989990 925.856750,903.371521 919.969543,887.637634 
	C917.154297,880.113647 915.913513,872.483704 915.938049,864.446838 
	C916.069031,821.464844 915.999817,778.482361 915.999817,735.000000 
z"/>
</svg>