<svg xmlns="http://www.w3.org/2000/svg" xml:space="preserve" width="2000" height="110" data-id="lg_Q2WOpenDkfUK2z20HL" data-version="1" viewBox="0 0 2000 110"><g data-padding="20"><path fill="#f36" d="M942.395 7.586v16.077a6.383 6.383 0 0 0-6.365 6.39v24.985a12.745 12.745 0 0 0 12.757 12.757h25.11c3.528 0 6.39-2.85 6.39-6.366v-.05h12.377V48.621h-12.376a6.39 6.39 0 0 0-6.394-6.342h-6.515a5.814 5.814 0 0 1-5.812-5.811v-6.414a6.4 6.4 0 0 0-6.392-6.393V7.586ZM997.37 42.18a3.61 3.61 0 0 0-3.623 3.625V64.17a3.61 3.61 0 0 0 3.623 3.624h5.232a3.61 3.61 0 0 0 3.625-3.624V45.803a3.603 3.603 0 0 0-3.624-3.622Zm28.706.05a6.41 6.41 0 0 0-6.389 6.393h-12.38v12.755h12.38a6.39 6.39 0 0 0 6.392 6.39h6.54a5.814 5.814 0 0 1 5.812 5.811v6.393a6.4 6.4 0 0 0 6.393 6.39v16.052h12.755V86.362a6.41 6.41 0 0 0 6.391-6.392V54.988a12.765 12.765 0 0 0-12.783-12.757Z"/><path fill="transparent" stroke="transparent" d="M926 0h148v110H926z"/></g></svg>